<?xml version="1.0" encoding="UTF-8" standalone="no"?>
<svg
   xmlns:dc="http://purl.org/dc/elements/1.1/"
   xmlns:cc="http://creativecommons.org/ns#"
   xmlns:rdf="http://www.w3.org/1999/02/22-rdf-syntax-ns#"
   xmlns:svg="http://www.w3.org/2000/svg"
   xmlns="http://www.w3.org/2000/svg"
   viewBox="0 0 164.54666 66.146667"
   height="66.146667"
   width="164.54666"
   xml:space="preserve"
   id="svg2"
   version="1.1"><metadata
     id="metadata8"><rdf:RDF><cc:Work
         rdf:about=""><dc:format>image/svg+xml</dc:format><dc:type
           rdf:resource="http://purl.org/dc/dcmitype/StillImage" /><dc:title></dc:title></cc:Work></rdf:RDF></metadata><defs
     id="defs6" /><g
     transform="matrix(1.3333333,0,0,-1.3333333,0,66.146668)"
     id="g10"><g
       id="g12"><path
         id="path14"
         style="fill:#ffffff;fill-opacity:1;fill-rule:nonzero;stroke:none"
         d="M 49.305,24.766 C 49.305,11.208 38.312,0.212 24.754,0.212 11.191,0.212 0.199,11.208 0.199,24.766 c 0,13.563 10.992,24.555 24.555,24.555 13.558,0 24.551,-10.992 24.551,-24.555" /><path
         id="path16"
         style="fill:#ee2a27;fill-opacity:1;fill-rule:nonzero;stroke:none"
         d="m 37.039,9.157 h -5.215 l -1.445,10.207 c -0.008,0.047 -0.047,0.086 -0.098,0.086 -0.051,0 -0.09,-0.039 -0.097,-0.086 L 28.738,9.157 h -2 l -1.836,16.848 c -0.007,0.046 -0.047,0.082 -0.097,0.082 -0.051,0 -0.09,-0.036 -0.098,-0.082 L 22.871,9.157 h -1.988 l -1.445,10.211 c -0.008,0.051 -0.047,0.086 -0.098,0.086 -0.051,0 -0.09,-0.035 -0.098,-0.086 L 17.797,9.157 H 12.57 l 2.086,4.074 -9.605,7.723 1.879,1.613 -1.637,6.508 5.684,-0.789 1.636,3.074 6.602,-5.031 -2.578,11.492 4.144,-1.809 4.024,7.016 4.027,-7.016 4.141,1.809 -2.578,-11.492 6.601,5.031 1.637,-3.074 5.687,0.789 -1.636,-6.508 1.878,-1.613 -9.605,-7.723 z M 24.805,49.61 C 11.105,49.61 0,38.505 0,24.805 0,11.106 11.105,0.001 24.805,0.001 c 13.699,0 24.804,11.105 24.804,24.804 0,13.7 -11.105,24.805 -24.804,24.805" /><path
         id="path18"
         style="fill:#231f20;fill-opacity:1;fill-rule:nonzero;stroke:none"
         d="m 59.613,37.673 h 5.446 l 0.957,-6.942 h 0.027 l 1.48,6.942 h 3.684 L 68.77,26.204 h -5.45 l -0.945,6.988 h -0.027 l -1.489,-6.988 h -3.687 l 2.441,11.469" /><path
         id="path20"
         style="fill:#231f20;fill-opacity:1;fill-rule:nonzero;stroke:none"
         d="m 79.832,34.415 c 0.137,0.715 -0.211,0.953 -0.801,0.953 -0.73,0 -1.117,-0.317 -1.187,-0.668 -0.09,-0.41 0.144,-0.586 0.59,-0.731 0.82,-0.254 2.355,-0.57 3.41,-1.062 1.316,-0.606 1.734,-1.637 1.441,-3.02 -0.601,-2.808 -3.137,-3.984 -6.379,-3.984 -2.761,0 -5.121,0.855 -4.488,3.844 h 4.355 c -0.066,-0.321 -0.07,-0.637 0.055,-0.875 0.125,-0.223 0.379,-0.367 0.809,-0.367 0.668,0 1.187,0.429 1.293,0.941 0.093,0.426 -0.192,0.648 -0.594,0.773 l -3.02,0.957 c -1.656,0.524 -2.046,1.586 -1.734,3.063 0.508,2.383 2.715,3.734 6.07,3.734 2.86,0 4.813,-0.89 4.246,-3.558 h -4.066" /><path
         id="path22"
         style="fill:#231f20;fill-opacity:1;fill-rule:nonzero;stroke:none"
         d="m 87.816,37.673 h 8.719 l -0.633,-2.989 h -4.371 l -0.258,-1.222 h 4.032 l -0.633,-2.985 h -4.031 l -0.278,-1.289 h 4.512 l -0.637,-2.984 h -8.859 l 2.437,11.469" /><path
         id="path24"
         style="fill:#231f20;fill-opacity:1;fill-rule:nonzero;stroke:none"
         d="m 103.105,32.891 c 0.875,0 1.575,0.301 1.754,1.16 0.18,0.84 -0.371,1.016 -1.257,1.016 h -0.414 l -0.461,-2.176 z m -3.328,4.782 h 6.785 c 2.458,0 3.747,-0.747 3.29,-2.907 -0.286,-1.32 -1.051,-2.32 -2.856,-2.734 l -0.008,-0.031 c 1.094,-0.094 1.59,-0.586 1.629,-1.461 0.043,-0.985 -0.332,-2.606 -0.176,-4.336 h -4.449 c -0.086,0.859 0.078,2.301 0.129,3.289 0.027,0.57 -0.215,0.793 -0.941,0.793 h -0.528 l -0.867,-4.082 H 97.34 l 2.437,11.469" /><path
         id="path26"
         style="fill:#231f20;fill-opacity:1;fill-rule:nonzero;stroke:none"
         d="m 122.641,30.446 c -0.672,-3.164 -3.493,-4.543 -6.336,-4.543 -4.02,0 -5.356,2.445 -4.582,6.082 0.648,3.574 3.293,5.988 7.168,5.988 2.886,0 5.086,-1.175 4.382,-4.543 h -4.16 c 0.215,1.305 -0.211,1.559 -0.761,1.559 -1.176,0 -1.547,-1.207 -1.938,-3.051 -0.371,-1.746 -0.555,-3.051 0.59,-3.051 0.59,0 1.058,0.352 1.379,1.559 h 4.258" /><path
         id="path28"
         style="fill:#231f20;fill-opacity:1;fill-rule:nonzero;stroke:none"
         d="M 67.051,14.243 C 66.383,11.079 63.559,9.7 60.719,9.7 c -4.02,0 -5.356,2.445 -4.582,6.082 0.648,3.574 3.289,5.988 7.164,5.988 2.894,0 5.09,-1.176 4.39,-4.543 h -4.164 c 0.211,1.305 -0.207,1.559 -0.765,1.559 -1.176,0 -1.543,-1.207 -1.934,-3.051 -0.371,-1.746 -0.555,-3.051 0.59,-3.051 0.586,0 1.059,0.352 1.379,1.559 h 4.254" /><path
         id="path30"
         style="fill:#231f20;fill-opacity:1;fill-rule:nonzero;stroke:none"
         d="m 75.195,16.688 c 0.875,0 1.575,0.301 1.754,1.16 0.18,0.84 -0.371,1.016 -1.258,1.016 h -0.414 l -0.465,-2.176 z m -3.812,4.781 h 6.781 c 2.465,0 3.75,-0.746 3.289,-2.906 -0.281,-1.32 -1.047,-2.32 -2.851,-2.734 l -0.008,-0.031 c 1.09,-0.094 1.59,-0.586 1.625,-1.461 0.047,-0.985 -0.328,-2.606 -0.176,-4.336 h -4.445 c -0.086,0.855 0.074,2.3 0.129,3.289 0.027,0.57 -0.215,0.793 -0.946,0.793 h -0.523 l -0.867,-4.082 h -4.446 l 2.438,11.468" /><path
         id="path32"
         style="fill:#231f20;fill-opacity:1;fill-rule:nonzero;stroke:none"
         d="m 90.082,18.212 c 0.133,0.714 -0.211,0.953 -0.801,0.953 -0.73,0 -1.117,-0.317 -1.187,-0.668 -0.09,-0.41 0.144,-0.586 0.586,-0.731 0.824,-0.254 2.359,-0.57 3.414,-1.062 1.316,-0.606 1.734,-1.637 1.437,-3.02 C 92.934,10.876 90.398,9.7 87.156,9.7 c -2.761,0 -5.121,0.855 -4.488,3.844 h 4.355 c -0.066,-0.321 -0.07,-0.637 0.051,-0.875 0.129,-0.223 0.383,-0.368 0.813,-0.368 0.664,0 1.187,0.43 1.293,0.938 0.093,0.43 -0.196,0.652 -0.594,0.781 l -3.024,0.953 c -1.652,0.524 -2.042,1.586 -1.73,3.067 0.508,2.383 2.715,3.73 6.07,3.73 2.856,0 4.813,-0.89 4.246,-3.558 h -4.066" /><path
         id="path34"
         style="fill:#231f20;fill-opacity:1;fill-rule:nonzero;stroke:none"
         d="m 97.902,21.469 h 5.45 l 0.953,-6.941 h 0.035 l 1.472,6.941 h 3.684 l -2.437,-11.468 h -5.45 l -0.941,6.988 h -0.031 l -1.489,-6.988 h -3.683 l 2.437,11.468" /><path
         id="path36"
         style="fill:#231f20;fill-opacity:1;fill-rule:nonzero;stroke:none"
         d="m 117.062,16.465 h 5.907 l -1.278,-6.003 C 119.812,10.001 117.688,9.7 115.812,9.7 c -4.128,0 -5.613,2.523 -4.867,6.035 0.746,3.512 3.301,6.035 7.563,6.035 3.523,0 5.121,-1.16 4.597,-3.844 h -4.257 c 0.062,0.368 -0.032,0.606 -0.192,0.747 -0.16,0.144 -0.418,0.207 -0.703,0.207 -0.683,0 -1.199,-0.348 -1.519,-0.809 -0.325,-0.461 -0.625,-1.59 -0.832,-2.559 -0.239,-1.113 -0.301,-1.875 -0.172,-2.238 0.168,-0.476 0.566,-0.684 1.156,-0.684 0.43,0 0.852,0.063 1.258,0.239 l 0.293,1.383 h -1.559 l 0.484,2.253" /></g></g></svg>